<?xml version="1.0" encoding="iso-8859-1"?>
<!-- Generator: Adobe Illustrator 18.1.1, SVG Export Plug-In . SVG Version: 6.00 Build 0)  -->
<svg version="1.1" id="Capa_1" xmlns="http://www.w3.org/2000/svg" xmlns:xlink="http://www.w3.org/1999/xlink" x="0px" y="0px"
	 viewBox="0 0 260.002 260.002" style="enable-background:new 0 0 260.002 260.002;" xml:space="preserve">
<g>
	<g>
		<path style="fill:#030104;" d="M182.547,161.683l-2.084,0.4c-4.309,4.423-23.047,9.51-35.805,12.236
			c-6.864,1.465-12.301,1.728-12.301,1.728l-1.685,5.136l-33.177-3.604l0.195-4.506c0,0,0,0-8.196-2.203
			c-6.314-1.908-8.531-3.878-8.563-5.746l-1.501-0.002l0,0c-41.707-0.057-79.686,0.827-79.429,13.053
			c0.367,17.379,50.501,51.809,132.944,49.678c82.44-2.129,127.419-42.789,127.054-60.17
			C259.738,155.417,223.312,158.378,182.547,161.683z"/>
		<path style="fill:#030104;" d="M87.802,144.956l-0.015,0.057l0.345,1.795c1.121,0.5,7.187,3.223,12.369,4.434
			c0.444-0.326,0.808-4.8,0.808-4.8s29.483,2.163,31.409,2.462c0.333,0.597,1.219,1.633,1.219,1.633l-0.146,1.92
			c0,0,8.492-0.141,21.227-2.91c9.492-2.277,20.354-5.979,22.471-7.643l-0.324-1.689c-5.136-23.128-10.702-52.831-10.702-52.831
			l-3.348-6.025l0.604-3.882l-1.811-6.093c0,0,37.264-30.157,40.781-38.024c3.516-7.866-88.514,22.354-88.514,22.354l-5.257,3.313
			c0,0-5.355,1.004-8.103,8.836l0,0c-1.344,3.843-3.826,36.961-8.944,60.558c-1.283,5.919-2.721,11.281-4.192,16.03l0.099,0.515
			L87.802,144.956z"/>
		<path style="fill:#030104;" d="M102.053,147.323l-3.917,29.072l0.812,0.999l31.146,3.218l3.106-30.072l-0.869-1.038
			L102.053,147.323z M124.59,174.079l-18.919-1.955l1.886-18.266l18.921,1.953L124.59,174.079z"/>
	</g>
</g>
<g>
</g>
<g>
</g>
<g>
</g>
<g>
</g>
<g>
</g>
<g>
</g>
<g>
</g>
<g>
</g>
<g>
</g>
<g>
</g>
<g>
</g>
<g>
</g>
<g>
</g>
<g>
</g>
<g>
</g>
</svg>
